<svg version="1.1" xmlns="http://www.w3.org/2000/svg" viewBox="0 0 2099.6709914177654 1028" width="4199.341982835531" height="2056">
  <!-- svg-source:excalidraw -->
  
  <defs>
    <style class="style-fonts">
      @font-face {
        font-family: "Virgil";
        src: url("https://excalidraw.com/Virgil.woff2");
      }
      @font-face {
        font-family: "Cascadia";
        src: url("https://excalidraw.com/Cascadia.woff2");
      }
    </style>
    
  </defs>
  <rect x="0" y="0" width="2099.6709914177654" height="1028" fill="#ffffff"></rect><g stroke-linecap="round" transform="translate(1566.588169642857 540.1901506696433) rotate(0 180.73828125 184.02734375)"><path d="M32 0 M32 0 C104.16 -1.7, 175.39 0.68, 329.48 0 M32 0 C137.84 -1.75, 245.08 -1.79, 329.48 0 M329.48 0 C352.8 -1.38, 362.22 8.68, 361.48 32 M329.48 0 C350.31 -1.82, 360.62 11.01, 361.48 32 M361.48 32 C361.18 138.56, 360.37 243.41, 361.48 336.05 M361.48 32 C360.88 97.83, 361.46 163.35, 361.48 336.05 M361.48 336.05 C359.69 356.27, 349.55 366.59, 329.48 368.05 M361.48 336.05 C363.06 355.86, 348.75 368.5, 329.48 368.05 M329.48 368.05 C229.69 368.81, 128.71 369, 32 368.05 M329.48 368.05 C228.63 367.78, 128.99 367.92, 32 368.05 M32 368.05 C9.1 369.89, -0.89 355.85, 0 336.05 M32 368.05 C10.52 368.52, -1.78 358.61, 0 336.05 M0 336.05 C0.21 258.55, 0.62 179.62, 0 32 M0 336.05 C-1.35 263.94, -2.01 190.05, 0 32 M0 32 C0.66 12.24, 12.35 -1.51, 32 0 M0 32 C-1.36 9.33, 12.75 -0.11, 32 0" stroke="#1e1e1e" stroke-width="1" fill="none"></path></g><g transform="translate(1615.408482142857 562.7893694196433) rotate(0 147.60000610351562 16.799999999999997)"><text x="0" y="0" font-family="Cascadia, Segoe UI Emoji" font-size="28px" fill="#1e1e1e" text-anchor="start" style="white-space: pre;" direction="ltr" dominant-baseline="text-before-edge">DAO Smart Contract</text></g><g transform="translate(1674.646763392857 701.0104631696433) rotate(0 70.4000015258789 12)"><text x="0" y="0" font-family="Cascadia, Segoe UI Emoji" font-size="20px" fill="#1e1e1e" text-anchor="start" style="white-space: pre;" direction="ltr" dominant-baseline="text-before-edge">invest(hbar)</text></g><g transform="translate(1592.131138392857 748.1862444196433) rotate(0 158.39999389648438 12)"><text x="0" y="0" font-family="Cascadia, Segoe UI Emoji" font-size="20px" fill="#1e1e1e" text-anchor="start" style="white-space: pre;" direction="ltr" dominant-baseline="text-before-edge">bulkvote({projects: votes})</text></g><g stroke-linecap="round" transform="translate(176.2209821428571 254.92843191964323) rotate(0 150.96875 137.720703125)"><path d="M32 0 M32 0 C92.13 -0.88, 153.79 0.09, 269.94 0 M32 0 C116.25 1.69, 199.38 0.8, 269.94 0 M269.94 0 C291.99 0.41, 300.91 11.07, 301.94 32 M269.94 0 C290.64 0.98, 301.78 11.8, 301.94 32 M301.94 32 C299.64 101.07, 301.5 172.55, 301.94 243.44 M301.94 32 C301.2 76.09, 301.28 120.46, 301.94 243.44 M301.94 243.44 C302.8 263.01, 290.09 276.15, 269.94 275.44 M301.94 243.44 C301.02 266.29, 291.44 277.69, 269.94 275.44 M269.94 275.44 C182.3 275.85, 93.5 277.48, 32 275.44 M269.94 275.44 C210.86 275.75, 150.23 275.79, 32 275.44 M32 275.44 C12.52 276.58, -1.21 262.96, 0 243.44 M32 275.44 C11.83 275.56, -1.53 266.88, 0 243.44 M0 243.44 C2.08 197.51, 2.63 150.82, 0 32 M0 243.44 C1.55 191.33, 0.44 141.32, 0 32 M0 32 C-1.03 10.55, 9.23 1.79, 32 0 M0 32 C0.9 8.93, 10.07 0.36, 32 0" stroke="#1e1e1e" stroke-width="1" fill="none"></path></g><g transform="translate(197.4280133928571 285.0346819196432) rotate(0 131.1999969482422 16.80000000000001)"><text x="0" y="0" font-family="Cascadia, Segoe UI Emoji" font-size="28px" fill="#1e1e1e" text-anchor="start" style="white-space: pre;" direction="ltr" dominant-baseline="text-before-edge">Operator Account</text></g><g transform="translate(204.2209821428571 348.64249441964324) rotate(0 64.53333282470703 12)"><text x="0" y="0" font-family="Cascadia, Segoe UI Emoji" font-size="20px" fill="#1e1e1e" text-anchor="start" style="white-space: pre;" direction="ltr" dominant-baseline="text-before-edge">createNFT()</text></g><g transform="translate(204.6858258928571 382.89327566964323) rotate(0 52.79999923706055 12)"><text x="0" y="0" font-family="Cascadia, Segoe UI Emoji" font-size="20px" fill="#1e1e1e" text-anchor="start" style="white-space: pre;" direction="ltr" dominant-baseline="text-before-edge">mintNFT()</text></g><g transform="translate(202.0412946428571 418.40499441964323) rotate(0 82.13333129882812 12)"><text x="0" y="0" font-family="Cascadia, Segoe UI Emoji" font-size="20px" fill="#1e1e1e" text-anchor="start" style="white-space: pre;" direction="ltr" dominant-baseline="text-before-edge">associateNFT()</text></g><g stroke-linecap="round" transform="translate(178.6623883928571 603.3444475446432) rotate(0 146.96875 156.720703125)"><path d="M32 0 M32 0 C121.41 1.6, 210.05 2.79, 261.94 0 M32 0 C78.12 0.15, 124.22 -0.38, 261.94 0 M261.94 0 C284.97 0.2, 295.01 9.37, 293.94 32 M261.94 0 C284.92 1.19, 295.52 9.4, 293.94 32 M293.94 32 C294 91.39, 294.01 150.77, 293.94 281.44 M293.94 32 C292.51 113.38, 292.63 194.99, 293.94 281.44 M293.94 281.44 C292.63 303.33, 281.8 315.41, 261.94 313.44 M293.94 281.44 C292.96 301.15, 281.05 314.76, 261.94 313.44 M261.94 313.44 C202.67 314.11, 143.16 316.07, 32 313.44 M261.94 313.44 C202.91 312.55, 145.35 312.81, 32 313.44 M32 313.44 C10.92 313.84, 1.68 302, 0 281.44 M32 313.44 C10.1 313.6, 0.59 303.42, 0 281.44 M0 281.44 C1.78 195.5, 0.26 108.58, 0 32 M0 281.44 C-0.69 215.46, -0.46 150.1, 0 32 M0 32 C-0.17 9.23, 11.09 -0.69, 32 0 M0 32 C-1.21 11.16, 12.78 1.86, 32 0" stroke="#1e1e1e" stroke-width="1" fill="none"></path></g><g transform="translate(201.5217633928571 638.3686662946433) rotate(0 114.80000305175781 16.8)"><text x="0" y="0" font-family="Cascadia, Segoe UI Emoji" font-size="28px" fill="#1e1e1e" text-anchor="start" style="white-space: pre;" direction="ltr" dominant-baseline="text-before-edge">  User Account</text></g><g transform="translate(220.3147321428571 731.9764787946432) rotate(0 117.33333587646484 12)"><text x="0" y="0" font-family="Cascadia, Segoe UI Emoji" font-size="20px" fill="#1e1e1e" text-anchor="start" style="white-space: pre;" direction="ltr" dominant-baseline="text-before-edge">calculateEmissions()</text></g><g transform="translate(214.7795758928571 774.2272600446432) rotate(0 70.4000015258789 12)"><text x="0" y="0" font-family="Cascadia, Segoe UI Emoji" font-size="20px" fill="#1e1e1e" text-anchor="start" style="white-space: pre;" direction="ltr" dominant-baseline="text-before-edge">investHBAR()</text></g><g transform="translate(212.1350446428571 813.7389787946432) rotate(0 123.19999694824219 12)"><text x="0" y="0" font-family="Cascadia, Segoe UI Emoji" font-size="20px" fill="#1e1e1e" text-anchor="start" style="white-space: pre;" direction="ltr" dominant-baseline="text-before-edge">handleProjectVoting()</text></g><g stroke-linecap="round" transform="translate(1573.2617187499998 163.97265625000023) rotate(0 172.73828125 158.02734375)"><path d="M32 0 M32 0 C139.92 1.61, 247.73 0.48, 313.48 0 M32 0 C115.26 -1.41, 199 -1.1, 313.48 0 M313.48 0 C335.1 1.77, 343.63 9.1, 345.48 32 M313.48 0 C333.52 1.13, 347.76 8.38, 345.48 32 M345.48 32 C345.09 125.69, 347.32 220.7, 345.48 284.05 M345.48 32 C347.49 101.84, 347.8 171.69, 345.48 284.05 M345.48 284.05 C346.63 304.16, 335.47 315.55, 313.48 316.05 M345.48 284.05 C344.82 305.5, 336.11 317.48, 313.48 316.05 M313.48 316.05 C237.96 316.3, 161.78 314.72, 32 316.05 M313.48 316.05 C232.9 317.6, 153.16 317.21, 32 316.05 M32 316.05 C11.1 315.8, -0.77 304.07, 0 284.05 M32 316.05 C10.39 316.24, 0.35 303.62, 0 284.05 M0 284.05 C1.53 202.2, 1.04 117.25, 0 32 M0 284.05 C0.26 233.12, 0.05 183.06, 0 32 M0 32 C1.4 9.01, 11.85 -0.13, 32 0 M0 32 C-1.52 10.42, 12.19 -0.55, 32 0" stroke="#1e1e1e" stroke-width="1" fill="none"></path></g><g transform="translate(1652.3437499999998 195.20000000000027) rotate(0 106.5999984741211 33.599999999999994)"><text x="0" y="0" font-family="Cascadia, Segoe UI Emoji" font-size="28px" fill="#1e1e1e" text-anchor="start" style="white-space: pre;" direction="ltr" dominant-baseline="text-before-edge">Hedera Token </text><text x="0" y="33.6" font-family="Cascadia, Segoe UI Emoji" font-size="28px" fill="#1e1e1e" text-anchor="start" style="white-space: pre;" direction="ltr" dominant-baseline="text-before-edge">Service NFT</text></g><g transform="translate(1647.6000061035154 802.0000000000002) rotate(0 105.5999984741211 12)"><text x="0" y="0" font-family="Cascadia, Segoe UI Emoji" font-size="20px" fill="#1e1e1e" text-anchor="start" style="white-space: pre;" direction="ltr" dominant-baseline="text-before-edge">getInvestorsInfo()</text></g><g transform="translate(1642.4000015258787 852.0000000000002) rotate(0 105.5999984741211 12)"><text x="0" y="0" font-family="Cascadia, Segoe UI Emoji" font-size="20px" fill="#1e1e1e" text-anchor="start" style="white-space: pre;" direction="ltr" dominant-baseline="text-before-edge">getProjectShares()</text></g><g transform="translate(1660.4000015258787 652.0000000000002) rotate(0 88 12)"><text x="0" y="0" font-family="Cascadia, Segoe UI Emoji" font-size="20px" fill="#1e1e1e" text-anchor="start" style="white-space: pre;" direction="ltr" dominant-baseline="text-before-edge">createProject()</text></g><g transform="translate(1665.5468749999998 314.0000000000002) rotate(0 35.20000076293945 12)"><text x="0" y="0" font-family="Cascadia, Segoe UI Emoji" font-size="20px" fill="#1e1e1e" text-anchor="start" style="white-space: pre;" direction="ltr" dominant-baseline="text-before-edge">mint()</text></g><g transform="translate(1663.5468749999998 358.0000000000002) rotate(0 64.53333282470703 12)"><text x="0" y="0" font-family="Cascadia, Segoe UI Emoji" font-size="20px" fill="#1e1e1e" text-anchor="start" style="white-space: pre;" direction="ltr" dominant-baseline="text-before-edge">associate()</text></g><g transform="translate(1665.5468749999998 400.0000000000002) rotate(0 58.66666793823242 12)"><text x="0" y="0" font-family="Cascadia, Segoe UI Emoji" font-size="20px" fill="#1e1e1e" text-anchor="start" style="white-space: pre;" direction="ltr" dominant-baseline="text-before-edge">transfer()</text></g><g transform="translate(203.96875 458.0000000000001) rotate(0 76.26667022705078 12)"><text x="0" y="0" font-family="Cascadia, Segoe UI Emoji" font-size="20px" fill="#1e1e1e" text-anchor="start" style="white-space: pre;" direction="ltr" dominant-baseline="text-before-edge">trasnferNFT()</text></g><g stroke-linecap="round" transform="translate(877.2617187499998 377.97265625000034) rotate(0 180.73828125 184.02734375)"><path d="M32 0 M32 0 C101.23 -1.33, 167.78 -3.22, 329.48 0 M329.48 0 C350.78 1.9, 359.91 9.06, 361.48 32 M361.48 32 C359.82 101.81, 361.06 171.36, 361.48 336.05 M361.48 336.05 C362.27 357.53, 352.04 367.61, 329.48 368.05 M329.48 368.05 C213.6 366.69, 98.53 366.96, 32 368.05 M32 368.05 C8.77 369.47, -0.48 357.64, 0 336.05 M0 336.05 C1.48 259.43, 1.48 180.23, 0 32 M0 32 C-0.65 9.42, 9.74 -0.79, 32 0" stroke="#1e1e1e" stroke-width="1.5" fill="none" stroke-dasharray="8 9"></path></g><g transform="translate(978.3437499999998 407.2000000000004) rotate(0 82 16.799999999999997)"><text x="0" y="0" font-family="Cascadia, Segoe UI Emoji" font-size="28px" fill="#1e1e1e" text-anchor="start" style="white-space: pre;" direction="ltr" dominant-baseline="text-before-edge">API server</text></g><g transform="translate(991.9999999999998 558.0000000000003) rotate(0 52.79999923706055 12)"><text x="0" y="0" font-family="Cascadia, Segoe UI Emoji" font-size="20px" fill="#1e1e1e" text-anchor="start" style="white-space: pre;" direction="ltr" dominant-baseline="text-before-edge">preMint()</text></g><g transform="translate(957.2000007629392 604.0000000000003) rotate(0 93.86666870117188 12)"><text x="0" y="0" font-family="Cascadia, Segoe UI Emoji" font-size="20px" fill="#1e1e1e" text-anchor="start" style="white-space: pre;" direction="ltr" dominant-baseline="text-before-edge">getNFTMetadata()</text></g><g transform="translate(953.2000007629395 652.0000000000003) rotate(0 99.73332977294922 12)"><text x="0" y="0" font-family="Cascadia, Segoe UI Emoji" font-size="20px" fill="#1e1e1e" text-anchor="start" style="white-space: pre;" direction="ltr" dominant-baseline="text-before-edge">getTreasuryInfo()</text></g><g stroke-linecap="round" transform="translate(10 10) rotate(0 319.9999999999999 504)"><path d="M32 0 M32 0 C187.71 -0.16, 342.65 0.69, 608 0 M608 0 C628.45 -1.12, 639.7 10.98, 640 32 M640 32 C638.7 293.66, 638.79 555.59, 640 976 M640 976 C640.74 998.98, 629.85 1006.85, 608 1008 M608 1008 C477.11 1009.24, 344.5 1008.95, 32 1008 M32 1008 C12.06 1009.87, -0.74 995.65, 0 976 M0 976 C-0.83 662.23, -0.7 347.17, 0 32 M0 32 C-0.73 9.72, 11.28 -0.7, 32 0" stroke="#1e1e1e" stroke-width="1.5" fill="none" stroke-dasharray="8 9"></path></g><g transform="translate(243.4000015258789 70.40000000000009) rotate(0 82 16.80000000000001)"><text x="0" y="0" font-family="Cascadia, Segoe UI Emoji" font-size="28px" fill="#1e1e1e" text-anchor="start" style="white-space: pre;" direction="ltr" dominant-baseline="text-before-edge">Client App</text></g><g transform="translate(212.8000030517578 856) rotate(0 82.13333129882812 12)"><text x="0" y="0" font-family="Cascadia, Segoe UI Emoji" font-size="20px" fill="#1e1e1e" text-anchor="start" style="white-space: pre;" direction="ltr" dominant-baseline="text-before-edge">viewTreasury()</text></g><g transform="translate(160 122.00000000000011) rotate(0 181.86666870117188 12)"><text x="0" y="0" font-family="Cascadia, Segoe UI Emoji" font-size="20px" fill="#1e1e1e" text-anchor="start" style="white-space: pre;" direction="ltr" dominant-baseline="text-before-edge">https://netzero-dao.vercel.app/</text></g><g transform="translate(913.9999999999998 462.0000000000001) rotate(0 146.6666717529297 12)"><text x="0" y="0" font-family="Cascadia, Segoe UI Emoji" font-size="20px" fill="#1e1e1e" text-anchor="start" style="white-space: pre;" direction="ltr" dominant-baseline="text-before-edge">dev-api.netzerohedera.xyz</text></g><g stroke-linecap="round" transform="translate(1386.0000000000002 12) rotate(0 350 490)"><path d="M32 0 M32 0 C251.17 -1.66, 469.76 -1.51, 668 0 M668 0 C690.61 -1.73, 700.56 10.52, 700 32 M700 32 C697.79 370.01, 698.13 708.14, 700 948 M700 948 C699.07 967.7, 689.11 980.25, 668 980 M668 980 C493.06 979.02, 319.79 978.85, 32 980 M32 980 C9.34 980.92, 1.16 967.6, 0 948 M0 948 C2.98 721.34, 2.27 492.86, 0 32 M0 32 C-0.27 10.03, 10.92 0.76, 32 0" stroke="#1e1e1e" stroke-width="1.5" fill="none" stroke-dasharray="8 9"></path></g><g transform="translate(1605.4000015258787 48.400000000000205) rotate(0 139.39999389648438 16.80000000000001)"><text x="0" y="0" font-family="Cascadia, Segoe UI Emoji" font-size="28px" fill="#1e1e1e" text-anchor="start" style="white-space: pre;" direction="ltr" dominant-baseline="text-before-edge">Hedera Previewnet</text></g><g stroke-linecap="round"><g transform="translate(662 579.2085794118614) rotate(0 101.2208773979591 0.04648436288851343)"><path d="M1.09 -1.09 C34.95 -0.78, 168.59 1.02, 202.23 1.18 M0.21 0.95 C34 0.95, 167.66 -0.67, 201.41 -0.71" stroke="#1e1e1e" stroke-width="1" fill="none"></path></g><g transform="translate(662 579.2085794118614) rotate(0 101.2208773979591 0.04648436288851343)"><path d="M1.93 0.83 L15.49 -7.51 L13.83 3.91 L2.31 0.49" stroke="none" stroke-width="0" fill="#1e1e1e" fill-rule="evenodd"></path><path d="M-0.27 -0.8 C4.76 -1.42, 6.21 -3.51, 15.07 -7.76 M1.58 -1.49 C5.72 -4.02, 11.58 -6.03, 14.06 -7.72 M14.95 -7.44 C14.6 -3.32, 14.16 0.6, 14.21 5.64 M14.41 -7.7 C14.53 -3.52, 14.51 1.32, 14.49 4.98 M13.35 6.23 C9.12 4.29, 5.88 0.82, 0.35 -1.18 M14.7 5.83 C11.78 4.35, 8.73 1.65, 0.36 -0.66 M1.09 -1.09 C1.09 -1.09, 1.09 -1.09, 1.09 -1.09 M1.09 -1.09 C1.09 -1.09, 1.09 -1.09, 1.09 -1.09" stroke="#1e1e1e" stroke-width="1" fill="none"></path></g><g transform="translate(662 579.2085794118614) rotate(0 101.2208773979591 0.04648436288851343)"><path d="M202.25 1.2 L188.58 5.48 L186.98 -8.46 L202.63 0.87" stroke="none" stroke-width="0" fill="#1e1e1e" fill-rule="evenodd"></path><path d="M200.05 -0.42 C198.84 2.06, 194.12 2.83, 188.17 5.23 M201.9 -1.12 C195.76 1.26, 191.33 4.01, 187.16 5.27 M188.05 5.55 C187.56 1.54, 187.14 -2.68, 187.37 -6.73 M187.51 5.29 C187.66 1.41, 187.66 -1.82, 187.65 -7.39 M186.51 -6.14 C191.76 -3.67, 198.1 -2.64, 200.66 -0.8 M187.86 -6.53 C191.54 -4.83, 195.05 -4.45, 200.67 -0.28 M201.41 -0.71 C201.41 -0.71, 201.41 -0.71, 201.41 -0.71 M201.41 -0.71 C201.41 -0.71, 201.41 -0.71, 201.41 -0.71" stroke="#1e1e1e" stroke-width="1" fill="none"></path></g></g><mask></mask><g stroke-linecap="round"><g transform="translate(493.2015139805403 303.78837159454883) rotate(0 535.0757899619485 -0.10122565624499202)"><path d="M0.52 1.15 C179.01 1.07, 892.55 0.75, 1070.82 0.47 M-0.66 0.7 C177.72 0.2, 891.8 -1.33, 1070.12 -1.35" stroke="#1e1e1e" stroke-width="1" fill="none"></path></g><g transform="translate(493.2015139805403 303.78837159454883) rotate(0 535.0757899619485 -0.10122565624499202)"><path d="M-0.29 1.49 L14.28 -5.4 L13.85 6.15 L1.93 2.33" stroke="none" stroke-width="0" fill="#1e1e1e" fill-rule="evenodd"></path><path d="M1.95 1.74 C5.11 -1.02, 7.81 -3.09, 13.45 -4.38 M1.12 1.81 C3.87 -0.29, 6 -2.02, 13.87 -5.92 M14.81 -5.34 C14.08 -1.37, 15.06 2.41, 14.4 6.28 M14.59 -5.65 C13.68 -2.17, 14 1.4, 13.83 7.67 M13.58 8.9 C8.39 5.97, 4.24 1.44, 0.3 0.15 M14.77 7.95 C9.86 5.93, 6.76 3.45, 0.17 1.62 M0.52 1.15 C0.52 1.15, 0.52 1.15, 0.52 1.15 M0.52 1.15 C0.52 1.15, 0.52 1.15, 0.52 1.15" stroke="#1e1e1e" stroke-width="1" fill="none"></path></g><g transform="translate(493.2015139805403 303.78837159454883) rotate(0 535.0757899619485 -0.10122565624499202)"><path d="M1069.31 -1.01 L1056.7 4.81 L1056.25 -9 L1071.53 -0.16" stroke="none" stroke-width="0" fill="#1e1e1e" fill-rule="evenodd"></path><path d="M1071.55 -0.75 C1066.97 0.26, 1061.84 1.86, 1055.87 5.83 M1070.72 -0.69 C1067.51 0.17, 1063.73 1.2, 1056.29 4.29 M1057.23 4.87 C1056.63 1.9, 1057.6 -1.25, 1056.8 -8.86 M1057.01 4.56 C1055.85 1.99, 1056.16 -0.48, 1056.22 -7.48 M1055.97 -6.25 C1060.36 -4.56, 1065.79 -4.63, 1069.9 -2.34 M1057.17 -7.2 C1060.2 -5.27, 1065.1 -4.02, 1069.76 -0.87 M1070.12 -1.35 C1070.12 -1.35, 1070.12 -1.35, 1070.12 -1.35 M1070.12 -1.35 C1070.12 -1.35, 1070.12 -1.35, 1070.12 -1.35" stroke="#1e1e1e" stroke-width="1" fill="none"></path></g></g><mask></mask><g stroke-linecap="round"><g transform="translate(489.6735691193029 819.4581386480442) rotate(0 530.7374371020779 0.12872418528336027)"><path d="M-0.21 0.27 C322.47 3.39, 643.38 2.56, 1061.42 -1.88 M0.36 0.31 C354.47 -0.43, 708.86 -0.65, 1061.69 -1.19" stroke="#1e1e1e" stroke-width="1" fill="none"></path></g><g transform="translate(489.6735691193029 819.4581386480442) rotate(0 530.7374371020779 0.12872418528336027)"><path d="M-0.01 0.27 L13.7 -7.68 L12.64 6.22 L-1.78 -0.16" stroke="none" stroke-width="0" fill="#1e1e1e" fill-rule="evenodd"></path><path d="M-0.62 0.78 C5.37 -0.89, 8.03 -3.68, 12.15 -7.34 M0.46 0.85 C4.35 -1.63, 8.77 -3.41, 12.67 -6.04 M14.3 -6.98 C13.17 -0.51, 12.55 2.67, 13.99 5.5 M13.82 -6 C13.85 -3.03, 13.84 1.75, 13.28 7.19 M14.3 7.65 C8.45 6.21, 6.44 4.01, -0.53 0.12 M13.59 6.95 C7.54 3.72, 2.06 1.57, -0.14 -0.05 M-0.21 0.27 C-0.21 0.27, -0.21 0.27, -0.21 0.27 M-0.21 0.27 C-0.21 0.27, -0.21 0.27, -0.21 0.27" stroke="#1e1e1e" stroke-width="1" fill="none"></path></g><g transform="translate(489.6735691193029 819.4581386480442) rotate(0 530.7374371020779 0.12872418528336027)"><path d="M1061.89 -1.19 L1048.42 3.54 L1047.35 -7.92 L1060.12 -1.63" stroke="none" stroke-width="0" fill="#1e1e1e" fill-rule="evenodd"></path><path d="M1061.29 -0.68 C1059.05 1.27, 1053.47 2.32, 1046.87 3.88 M1062.36 -0.61 C1057.15 1.15, 1052.5 3.6, 1047.38 5.18 M1049.02 4.24 C1047.63 0.97, 1047.02 -5.59, 1048.7 -8.64 M1048.54 5.22 C1048.74 0.99, 1048.74 -1.42, 1048 -6.95 M1049.01 -6.49 C1051.2 -4.45, 1057.12 -2.95, 1061.38 -1.34 M1048.3 -7.19 C1052.89 -5.6, 1058.04 -2.79, 1061.77 -1.51 M1061.69 -1.19 C1061.69 -1.19, 1061.69 -1.19, 1061.69 -1.19 M1061.69 -1.19 C1061.69 -1.19, 1061.69 -1.19, 1061.69 -1.19" stroke="#1e1e1e" stroke-width="1" fill="none"></path></g></g><mask></mask><g transform="translate(919.9999999999998 116.00000000000011) rotate(0 171.36666870117188 37.5)"><text x="0" y="0" font-family="Virgil, Segoe UI Emoji" font-size="20px" fill="#1e1e1e" text-anchor="start" style="white-space: pre;" direction="ltr" dominant-baseline="text-before-edge">Note: In production </text><text x="0" y="25" font-family="Virgil, Segoe UI Emoji" font-size="20px" fill="#1e1e1e" text-anchor="start" style="white-space: pre;" direction="ltr" dominant-baseline="text-before-edge">this interaction will happen through</text><text x="0" y="50" font-family="Virgil, Segoe UI Emoji" font-size="20px" fill="#1e1e1e" text-anchor="start" style="white-space: pre;" direction="ltr" dominant-baseline="text-before-edge">the API server instead.</text></g><g stroke-linecap="round"><g transform="translate(910 167.69846177731438) rotate(0 -36.199708876977695 69.43993984502382)"><path d="M0.78 0.57 C-6.95 9.79, -34.3 31.72, -46.59 54.62 C-58.88 77.51, -68.42 123.91, -72.96 137.93 M-0.27 -0.18 C-7.58 8.72, -32.04 29.45, -44.19 52.66 C-56.35 75.87, -68.29 124.49, -73.18 139.06" stroke="#1e1e1e" stroke-width="1" fill="none"></path></g><g transform="translate(910 167.69846177731438) rotate(0 -36.199708876977695 69.43993984502382)"><path d="M-74.08 108.13 C-74.15 119.27, -74.77 126.23, -72.43 139.81 M-74.17 110.08 C-74.47 118.46, -73.62 126.58, -72.74 138.6" stroke="#1e1e1e" stroke-width="1" fill="none"></path></g><g transform="translate(910 167.69846177731438) rotate(0 -36.199708876977695 69.43993984502382)"><path d="M-54.4 113.94 C-59.98 123.57, -66.14 128.9, -72.43 139.81 M-54.49 115.89 C-60.41 122.79, -65.24 129.24, -72.74 138.6" stroke="#1e1e1e" stroke-width="1" fill="none"></path></g></g><mask></mask><g stroke-linecap="round"><g transform="translate(14.000000000000114 190.0000000000001) rotate(0 319.30288410484786 -1.1127409758534839)"><path d="M-0.93 -1.19 C105.57 -1.4, 532.78 -1.03, 639.53 -0.97" stroke="#1e1e1e" stroke-width="1.5" fill="none" stroke-dasharray="8 9"></path></g></g><mask></mask><g stroke-linecap="round"><g transform="translate(880 518) rotate(0 180.2445488423108 -1.04708052222162)"><path d="M1.05 -0.94 C60.87 -1.15, 299.62 -1.25, 359.43 -1.02" stroke="#1e1e1e" stroke-width="1.5" fill="none" stroke-dasharray="8 9"></path></g></g><mask></mask><g stroke-linecap="round"><g transform="translate(1387.9999999999998 124.00000000000011) rotate(0 351.2375502079726 -0.42397196368318646)"><path d="M0.8 -0.05 C117.67 -0.14, 584.72 -0.93, 701.67 -0.77" stroke="#1e1e1e" stroke-width="1.5" fill="none" stroke-dasharray="8 9"></path></g></g><mask></mask></svg>